<?xml version="1.0" encoding="UTF-8" standalone="no"?> <svg xmlns="http://www.w3.org/2000/svg" xmlns:xlink="http://www.w3.org/1999/xlink" fill="#f4ac0b" height="393" preserveAspectRatio="xMidYMid meet" version="1" viewBox="300.7 364.0 389.1 393.0" width="389" zoomAndPan="magnify"><g><g id="change1_6"><path d="M544.94745,403.1115L545.0477,408.78503Q543.79956,426.0628,531.5777,437.3976Q519.26447,448.73187,501.23715,448.32077Q483.9596,447.07257,472.6249,434.85052Q468.99,430.89734,466.44534,426.0874L464.22705,421.1086Q462.30817,415.93826,461.80206,410.1831Q460.74536,392.4792,471.4782,379.7508Q482.2111,367.0224,499.83893,365.07416Q517.5426,364.01746,530.2709,374.75046Q542.99915,385.48346,544.94745,403.1115"></path></g><g id="change1_7"><path d="M397.36084,580.60974L397.46112,586.28326Q396.21292,603.5609,383.99106,614.8957Q371.67792,626.2299,353.6507,625.81885Q336.3732,624.5707,325.03854,612.34863Q321.40366,608.39545,318.859,603.5856L316.64072,598.60675Q314.72186,593.43646,314.21576,587.6813Q313.15906,569.9774,323.8919,557.249Q334.62473,544.5207,352.2525,542.5724Q369.95605,541.5157,382.68433,552.2487Q395.41254,562.9817,397.36084,580.60974"></path></g><g id="change1_1"><path d="M673.56757,576.2166L673.66785,581.8902Q672.41974,599.16797,660.1978,610.50287Q647.8846,621.83716,629.8572,621.426Q612.5796,620.17786,601.2449,607.95575Q597.61,604.00256,595.06537,599.19257L592.84705,594.21375Q590.92816,589.0434,590.42206,583.2882Q589.36536,565.5842,600.09827,552.85583Q610.8311,540.1274,628.459,538.17914Q646.1627,537.12244,658.891,547.85547Q671.61926,558.5885,673.56757,576.2166"></path></g><g id="change1_8"><path d="M302.67523,696.75555L301.79312,692.254Q301.10086,687.7069,301.18192,683.1082Q300.7436,680.7431,303.1595,669.5226Q305.65277,660.6006,310.94562,652.9981Q313.57867,649.2268,316.80753,645.95123L320.1634,642.8239Q323.65823,639.8337,327.6054,637.47266Q335.5619,632.7283,344.63705,630.86926Q353.71674,629.032,362.89478,630.28796Q367.56818,630.95447,371.6022,632.23Q375.75766,633.52374,379.6544,635.4618L383.46115,637.54956Q402.8305,649.5981,408.34393,671.7326Q411.3175,684.669,408.0688,697.53906L302.67523,696.75555"></path></g><g id="change1_4"><path d="M450.00958,518.76196L449.12744,514.2604Q448.29752,512.0028,448.79147,500.53564Q449.2618,495.9604,450.49377,491.52893Q452.98706,482.60718,458.27988,475.00452Q463.59076,467.41443,471.1055,461.9974Q474.8402,459.31277,478.97266,457.29346Q483.10565,455.27536,487.51898,453.97992L491.9713,452.8757Q501.05087,451.03842,510.22894,452.2944Q514.9024,452.96082,518.93634,454.2364Q523.0918,455.5301,526.9885,457.46814L530.7952,459.55597Q550.16455,471.60434,555.678,493.73877Q558.65155,506.67505,555.40295,519.5451L450.00958,518.76196"></path></g><g id="change1_2"><path d="M581.1859,692.5508L580.3039,688.04913Q579.6117,683.50214,579.69275,678.9033Q579.2545,676.5382,581.67035,665.3176Q584.16364,656.396,589.4566,648.79315Q594.76764,641.2032,602.2823,635.78613Q606.017,633.1016,610.14954,631.0822L614.35266,629.2448Q618.6413,627.5829,623.1482,626.6646Q632.2279,624.82745,641.4059,626.0834Q646.07935,626.7498,650.1133,628.02545Q654.2688,629.3192,658.1654,631.2572L661.97217,633.3451Q681.3413,645.3936,686.8547,667.52783Q689.82825,680.4641,686.57965,693.3342L581.1859,692.5508"></path></g><g id="change1_5"><path d="M354.1451,507.94998L354.1451,507.94998Q359.7674,491.4574,370.81177,480.20038L370.8221,480.18988Q379.47,471.42023,396.4681,464.4195C399.42523,463.2016,402.80975,464.6115,404.02765,467.56863C405.24554,470.52576,403.83563,473.91028,400.8785,475.12817L400.8785,475.12817Q386.06064,481.23096,379.0684,488.32166L379.07874,488.31116Q369.87927,497.68774,365.10703,511.68686C364.0751,514.7139,360.78467,516.3313,357.75763,515.2994C354.7306,514.26746,353.1132,510.97702,354.1451,507.94998 Z"></path></g><g id="change1_9"><path d="M583.9744,464.19098L583.9744,464.19098Q595.2664,468.26694,602.0186,473.0813L601.90216,473.00037Q608.33905,477.3561,616.7561,487.4275C618.80695,489.8814,618.48016,493.53326,616.02625,495.58414C613.5723,497.635,609.9205,497.30823,607.8696,494.8543L607.8696,494.8543Q600.4982,486.03415,595.41156,482.59204C595.3722,482.56543,595.3338,482.5387,595.2951,482.5111L595.2951,482.5111Q589.8383,478.6204,580.0423,475.0844C577.0342,473.9986,575.4758,470.67978,576.56165,467.67166C577.64746,464.66354,580.9663,463.10516,583.9744,464.19098 Z"></path></g><g id="change1_3"><path d="M443.25555,732.177L443.25555,732.177Q458.11722,741.7327,480.24713,743.7101L480.05264,743.696Q509.3379,745.3212,523.3413,739.4337C526.2894,738.1942,529.6842,739.57935,530.9237,742.52747C532.1632,745.4756,530.7781,748.87036,527.82996,750.10986L527.82996,750.10986Q511.36365,757.0329,479.41092,755.2596C479.34604,755.256,479.28116,755.2513,479.21643,755.2455L479.21643,755.2455Q454.24948,753.0146,436.992,741.91846C434.30197,740.18884,433.52344,736.60596,435.25305,733.91595C436.98267,731.22595,440.56552,730.4474,443.25555,732.177 Z"></path></g></g></svg> 