<?xml version="1.0" encoding="UTF-8" standalone="no"?> <svg xmlns="http://www.w3.org/2000/svg" xmlns:xlink="http://www.w3.org/1999/xlink" fill="#f4ac0b" height="185.9" preserveAspectRatio="xMidYMid meet" version="1" viewBox="0.2 -1.2 235.3 185.9" width="235.3" zoomAndPan="magnify"><g data-name="Layer 2"><g data-name="Layer 1" id="change1_1"><path d="M78.05,60.59V16.73a16.73,16.73,0,1,1,33.45,0V60.59a16.73,16.73,0,1,1-33.45,0Zm8.74-43.86V60.59a8,8,0,1,0,16,0V16.73a8,8,0,1,0-16,0Z"></path><path d="M53.33,60.59V32.76a16.73,16.73,0,0,1,33.46,0V60.59a16.73,16.73,0,0,1-33.46,0Zm8.74-27.83V60.59a8,8,0,1,0,16,0V32.76a8,8,0,1,0-16,0Z"></path><path d="M127.7,45.55V21.81a16.73,16.73,0,1,1,33.45,0V45.55a4.36,4.36,0,0,1-4.37,4.37H132.07A4.36,4.36,0,0,1,127.7,45.55Zm24.71-23.74a8,8,0,1,0-16,0V41.18h16Z"></path><path d="M107.24,21.1a4.37,4.37,0,0,0,4.37-4.37,8,8,0,0,1,16,0,4.37,4.37,0,0,0,8.74,0,16.73,16.73,0,0,0-33.46,0A4.37,4.37,0,0,0,107.24,21.1Z"></path><path d="M66.1,171.22V156.89a13.48,13.48,0,0,1,13.47-13.46h66A13.48,13.48,0,0,1,159,156.89v14.33a13.48,13.48,0,0,1-13.47,13.47h-66A13.48,13.48,0,0,1,66.1,171.22Zm13.47-19.05a4.73,4.73,0,0,0-4.73,4.72v14.33a4.72,4.72,0,0,0,4.73,4.72h66a4.72,4.72,0,0,0,4.73-4.72V156.89a4.73,4.73,0,0,0-4.73-4.72Z"></path><path d="M114.33,78.53a17.16,17.16,0,0,0,5.26-.81c7.88-2.53,11-10.09,11.17-10.41A4.37,4.37,0,0,0,122.67,64c0,.13-1.88,4.21-5.81,5.44-3.19,1-7.19,0-11.89-3a4.37,4.37,0,0,0-4.67,7.39C105.27,77,110,78.53,114.33,78.53Z"></path><path d="M82.42,152.17H142.7a4.37,4.37,0,0,0,4.37-4.37v-5.43a37.29,37.29,0,0,1,5.2-19.1l25.11-32.38a31.11,31.11,0,0,0,6.48-19V60.87a19.71,19.71,0,0,0-19.68-19.69h-34a18.52,18.52,0,0,0-7.24,1.47,15.23,15.23,0,0,0-1.72.84,13.62,13.62,0,0,0-6.48,15.73,14.54,14.54,0,0,0,14.14,11h27.93a4.37,4.37,0,1,0,0-8.74H128.85A5.84,5.84,0,0,1,123.17,57a5.05,5.05,0,0,1,2.34-5.9q.39-.21.81-.39a9.65,9.65,0,0,1,3.83-.78h34a11,11,0,0,1,10.94,10.95V71.94a22.3,22.3,0,0,1-4.65,13.59L145.2,118.12a3.71,3.71,0,0,0-.28.41,46,46,0,0,0-6.59,23.84v1.06H86.79v-1.06a46.61,46.61,0,0,0-4.13-19.25,42.77,42.77,0,0,0-7.1-10.59l-8.27-9.36a20.83,20.83,0,0,1-5.22-13.79V49.74a4.37,4.37,0,1,0-8.74,0V89.38A29.54,29.54,0,0,0,60.74,109L69,118.31a34.61,34.61,0,0,1,5.7,8.45,37.81,37.81,0,0,1,3.34,15.61v5.43A4.37,4.37,0,0,0,82.42,152.17Z"></path><path d="M97.31,131.24h48.35a4.38,4.38,0,0,0,0-8.75H97.31a4.38,4.38,0,0,0,0,8.75Z"></path><path d="M4.37,91.54h34a4.38,4.38,0,0,0,0-8.75h-34a4.38,4.38,0,0,0,0,8.75Z"></path><path d="M42.77,75.67a4.37,4.37,0,0,0,1.94-8.29L20.9,55.63A4.37,4.37,0,0,0,17,63.47l23.8,11.75A4.43,4.43,0,0,0,42.77,75.67Z"></path><path d="M19,119.15a4.43,4.43,0,0,0,1.93-.45L44.71,107a4.37,4.37,0,0,0-3.87-7.84L17,110.86A4.37,4.37,0,0,0,19,119.15Z"></path><path d="M197.34,91.54h34a4.38,4.38,0,0,0,0-8.75h-34a4.38,4.38,0,0,0,0,8.75Z"></path><path d="M192.9,75.67a4.43,4.43,0,0,0,1.93-.45l23.8-11.75a4.37,4.37,0,1,0-3.87-7.84L191,67.38a4.37,4.37,0,0,0,1.94,8.29Z"></path><path d="M216.69,119.15a4.37,4.37,0,0,0,1.94-8.29l-23.8-11.75A4.37,4.37,0,1,0,191,107l23.8,11.75A4.43,4.43,0,0,0,216.69,119.15Z"></path><path d="M40.43,184.69H183.69a4.38,4.38,0,1,0,0-8.75H40.43a4.38,4.38,0,1,0,0,8.75Z"></path></g></g></svg> 