<?xml version="1.0" encoding="UTF-8" standalone="no"?> <svg xmlns="http://www.w3.org/2000/svg" xmlns:xlink="http://www.w3.org/1999/xlink" fill="#000000" height="526" preserveAspectRatio="xMidYMid meet" version="1" viewBox="237.1 219.0 525.8 526.0" width="525.8" zoomAndPan="magnify"><g fill="#f4ac0b" id="change1_1"><path d="M 479.042969 473.929688 L 456.335938 473.929688 C 453.371094 473.929688 450.96875 471.523438 450.96875 468.5625 L 450.96875 439.292969 L 439.769531 456.433594 C 438.777344 457.953125 437.085938 458.867188 435.273438 458.867188 L 434.804688 458.867188 C 432.996094 458.867188 431.304688 457.953125 430.3125 456.4375 L 419.230469 439.496094 L 419.230469 468.5625 C 419.230469 471.523438 416.824219 473.929688 413.859375 473.929688 L 391.507812 473.929688 C 388.539062 473.929688 386.140625 471.523438 386.140625 468.5625 L 386.140625 386.199219 C 386.140625 383.234375 388.539062 380.832031 391.507812 380.832031 L 415.625 380.832031 C 417.488281 380.832031 419.21875 381.796875 420.195312 383.382812 L 435.273438 407.851562 L 450.355469 383.382812 C 451.332031 381.796875 453.0625 380.832031 454.925781 380.832031 L 479.042969 380.832031 C 482.007812 380.832031 484.410156 383.234375 484.410156 386.199219 L 484.410156 468.5625 C 484.410156 471.523438 482.007812 473.929688 479.042969 473.929688 Z M 368.839844 467.003906 C 361.851562 472.535156 352.574219 475.339844 341.269531 475.339844 C 324.453125 475.339844 310.265625 470.289062 299.105469 460.328125 C 296.941406 458.398438 296.703125 455.101562 298.5625 452.878906 L 311.269531 437.699219 C 312.621094 436.085938 314.730469 435.460938 316.65625 435.925781 C 315.371094 435.261719 314.101562 434.539062 312.851562 433.765625 C 308.90625 431.320312 305.925781 428.117188 303.992188 424.246094 C 302.136719 420.539062 301.191406 416.128906 301.191406 411.144531 C 301.191406 401.769531 304.738281 394 311.730469 388.054688 C 318.46875 382.324219 327.457031 379.417969 338.445312 379.417969 C 353.121094 379.417969 365.652344 383.496094 375.6875 391.546875 C 377.902344 393.320312 378.351562 396.515625 376.710938 398.835938 L 365.296875 414.953125 C 364.394531 416.230469 363.035156 416.992188 361.597656 417.175781 C 364.933594 418.644531 367.792969 420.277344 370.203125 422.089844 C 376.660156 426.949219 379.933594 434.03125 379.933594 443.144531 C 379.933594 453.144531 376.199219 461.171875 368.839844 467.003906 Z M 494.144531 386.199219 C 494.144531 383.234375 496.546875 380.832031 499.511719 380.832031 L 523.632812 380.832031 C 525.496094 380.832031 527.226562 381.796875 528.203125 383.382812 L 543.28125 407.851562 L 558.363281 383.382812 C 559.339844 381.796875 561.066406 380.832031 562.929688 380.832031 L 587.050781 380.832031 C 590.015625 380.832031 592.417969 383.234375 592.417969 386.199219 L 592.417969 468.5625 C 592.417969 471.523438 590.015625 473.929688 587.050781 473.929688 L 564.34375 473.929688 C 561.378906 473.929688 558.976562 471.523438 558.976562 468.5625 L 558.976562 439.292969 L 547.777344 456.433594 C 546.785156 457.953125 545.09375 458.867188 543.28125 458.867188 L 542.8125 458.867188 C 541.003906 458.867188 539.3125 457.953125 538.320312 456.4375 L 527.234375 439.496094 L 527.234375 468.5625 C 527.234375 471.523438 524.835938 473.929688 521.867188 473.929688 L 499.511719 473.929688 C 496.546875 473.929688 494.144531 471.523438 494.144531 468.5625 Z M 487.261719 580.835938 C 500.304688 577.296875 512.828125 572.117188 524.492188 565.433594 C 526.398438 564.34375 528.773438 564.519531 530.492188 565.882812 L 570.210938 597.359375 L 615.476562 552.09375 L 584 512.378906 C 582.636719 510.65625 582.460938 508.277344 583.550781 506.371094 C 590.230469 494.714844 595.414062 482.1875 598.949219 469.144531 C 599.527344 467.027344 601.332031 465.46875 603.515625 465.21875 L 613.457031 464.066406 L 613.464844 464.0625 L 653.878906 459.386719 L 653.878906 395.371094 L 603.515625 389.542969 C 601.332031 389.289062 599.527344 387.730469 598.949219 385.613281 C 595.414062 372.570312 590.230469 360.046875 583.550781 348.386719 C 582.460938 346.480469 582.636719 344.101562 584 342.382812 L 615.476562 302.664062 L 570.210938 257.398438 L 530.492188 288.878906 C 528.773438 290.242188 526.398438 290.417969 524.492188 289.328125 C 512.828125 282.644531 500.304688 277.464844 487.261719 273.925781 C 485.144531 273.351562 483.589844 271.546875 483.335938 269.363281 L 477.507812 219 L 413.488281 219 L 407.660156 269.363281 C 407.40625 271.546875 405.851562 273.351562 403.730469 273.925781 C 390.6875 277.464844 378.164062 282.644531 366.5 289.328125 C 364.597656 290.417969 362.21875 290.242188 360.5 288.878906 L 320.785156 257.398438 L 275.515625 302.664062 L 306.992188 342.382812 C 308.355469 344.101562 308.535156 346.480469 307.441406 348.386719 C 300.761719 360.046875 295.578125 372.570312 292.042969 385.613281 C 291.46875 387.730469 289.660156 389.289062 287.480469 389.542969 L 237.117188 395.371094 L 237.117188 459.386719 L 287.480469 465.21875 C 289.660156 465.46875 291.46875 467.027344 292.042969 469.144531 C 295.578125 482.1875 300.761719 494.714844 307.441406 506.371094 C 308.535156 508.277344 308.355469 510.65625 306.992188 512.378906 L 275.515625 552.09375 L 320.785156 597.359375 L 360.5 565.882812 C 362.21875 564.519531 364.597656 564.34375 366.5 565.433594 C 378.164062 572.117188 390.6875 577.296875 403.730469 580.835938 C 405.851562 581.40625 407.40625 583.214844 407.660156 585.394531 L 413.488281 635.757812 L 477.507812 635.757812 L 482.117188 595.90625 L 482.117188 595.902344 L 483.335938 585.394531 C 483.589844 583.214844 485.144531 581.40625 487.261719 580.835938" fill="inherit"></path><path d="M 335.648438 409.3125 C 336.71875 409.808594 339.257812 410.742188 345.015625 412.019531 C 349.066406 412.910156 352.726562 413.910156 356.019531 415.023438 C 349.898438 411.089844 343.792969 409.097656 337.855469 409.097656 C 336.8125 409.097656 336.109375 409.203125 335.648438 409.3125" fill="inherit"></path><path d="M 345.617188 445.285156 C 344.714844 444.820312 342.328125 443.847656 336.421875 442.492188 C 331.210938 441.273438 326.851562 440.054688 323.4375 438.859375 C 321.855469 438.304688 320.285156 437.667969 318.730469 436.945312 L 318.738281 436.953125 C 326.0625 442.8125 333.699219 445.660156 342.09375 445.660156 C 343.902344 445.660156 344.996094 445.464844 345.617188 445.285156" fill="inherit"></path><path d="M 659.859375 469.503906 L 631.003906 472.84375 C 636.121094 476.347656 640.921875 480.335938 645.355469 484.769531 C 664.414062 503.824219 674.910156 529.167969 674.910156 556.117188 C 674.910156 583.074219 664.414062 608.410156 645.355469 627.46875 C 626.296875 646.527344 600.957031 657.027344 574.003906 657.027344 C 547.050781 657.027344 521.710938 646.527344 502.652344 627.46875 C 498.292969 623.113281 494.371094 618.394531 490.90625 613.359375 L 487.621094 641.746094 C 487.304688 644.449219 485.015625 646.492188 482.289062 646.492188 L 438.351562 646.492188 L 420.1875 669.417969 L 460.707031 709.9375 L 496.457031 681.605469 C 498.179688 680.242188 500.558594 680.066406 502.460938 681.152344 C 513.023438 687.207031 524.371094 691.898438 536.179688 695.105469 C 538.296875 695.675781 539.851562 697.484375 540.105469 699.664062 L 545.351562 745 L 602.65625 745 L 607.902344 699.664062 C 608.15625 697.484375 609.710938 695.675781 611.832031 695.105469 C 623.636719 691.898438 634.984375 687.207031 645.550781 681.152344 C 647.453125 680.066406 649.832031 680.242188 651.550781 681.605469 L 687.300781 709.9375 L 727.820312 669.417969 L 699.488281 633.664062 C 698.125 631.945312 697.945312 629.566406 699.039062 627.664062 C 705.089844 617.101562 709.78125 605.757812 712.984375 593.945312 C 713.558594 591.828125 715.367188 590.269531 717.546875 590.019531 L 762.882812 584.773438 L 762.882812 527.464844 L 717.546875 522.21875 C 715.367188 521.96875 713.558594 520.410156 712.984375 518.292969 C 709.78125 506.480469 705.089844 495.136719 699.039062 484.574219 C 697.945312 482.671875 698.125 480.289062 699.488281 478.570312 L 727.820312 442.820312 L 687.300781 402.300781 L 664.613281 420.28125 L 664.613281 464.171875 C 664.613281 466.898438 662.570312 469.191406 659.859375 469.503906" fill="inherit"></path></g></svg> 